Jump_normalized_Motion_pl12
version=1
nRows=21
nColumns=43
inDegrees=yes
endheader
time		pelvis_tilt		pelvis_list		pelvis_rotation		pelvis_tx		pelvis_ty		pelvis_tz		hip_flexion_r		hip_adduction_r		hip_rotation_r		knee_angle_r		ankle_angle_r		subtalar_angle_r		mtp_angle_r		hip_flexion_l		hip_adduction_l		hip_rotation_l		knee_angle_l		ankle_angle_l		subtalar_angle_l		mtp_angle_l		lumbar_extension		lumbar_bending		lumbar_rotation		neck_flexion		neck_lateral_bending		neck_rotation		arm_flex_r		arm_add_r		arm_rot_r		elbow_flex_r		pro_sup_r		wrist_flex_r		wrist_dev_r		hand_finger_flex_r		arm_flex_l		arm_add_l		arm_rot_l		elbow_flex_l		pro_sup_l		wrist_flex_l		wrist_dev_l		hand_finger_flex_l		
0.002500		2.548468		-9.456896		88.152513		0.074925		1.750947		1.783832		74.134631		-1.594696		1.665071		-150.759651		22.568044		10.187056		22.643066		73.734959		-8.903729		16.325995		-150.401537		19.891057		24.271785		30.972295		-45.015793		0.316614		3.371359		29.973438		1.434328		-1.885548		32.423405		-23.298633		-7.781765		95.137180		104.451250		-3.121121		-7.616847		-4.635403		53.593618		-26.293099		10.426246		62.423209		118.892052		-13.849522		0.118661		1.442067		
0.003914		2.595206		-9.621541		88.063325		0.074779		1.751230		1.782277		74.052388		-1.503531		1.698029		-150.639681		22.499721		10.258230		22.646284		73.669993		-8.959866		16.308596		-150.331351		19.664486		24.360681		31.031182		-44.811200		0.345431		3.430947		30.004107		1.419532		-1.890015		33.022123		-23.457021		-7.511860		95.217714		104.632914		-3.133524		-7.733911		-4.645050		53.991090		-26.460504		10.665988		62.535600		118.811465		-13.856765		0.024534		1.444307		
0.005328		2.644089		-9.782020		87.967937		0.074646		1.751513		1.780725		73.965124		-1.405404		1.729859		-150.520606		22.445661		10.325823		22.658862		73.601270		-9.024987		16.301839		-150.261262		19.425630		24.476207		31.102039		-44.608686		0.371471		3.494324		30.029598		1.409604		-1.876745		33.636256		-23.608818		-7.236174		95.285121		104.800969		-3.146294		-7.825175		-4.655465		54.399359		-26.630467		10.924975		62.634239		118.724874		-13.885361		-0.054859		1.432926		
0.006742		2.700072		-9.928722		87.852043		0.074555		1.751797		1.779179		73.861251		-1.284254		1.757957		-150.404496		22.438777		10.381575		22.702399		73.520125		-9.119826		16.330280		-150.191494		19.146141		24.679816		31.212486		-44.413051		0.388322		3.570233		30.037957		1.415777		-1.804807		34.301382		-23.738812		-6.941364		95.309110		104.924007		-3.160280		-7.831099		-4.668414		54.843342		-26.808896		11.247619		62.687390		118.618428		-13.984586		-0.085516		1.376492		
0.008157		2.753089		-10.080561		87.746486		0.074467		1.752075		1.777620		73.760170		-1.167720		1.777754		-150.289587		22.419855		10.430755		22.747600		73.447989		-9.204231		16.348727		-150.120732		18.884614		24.862238		31.316431		-44.213163		0.408428		3.643130		30.052296		1.417814		-1.749126		34.949845		-23.887168		-6.644967		95.360351		105.021477		-3.152822		-7.827544		-4.674449		55.289703		-26.962237		11.539863		62.737646		118.538481		-14.068708		-0.107255		1.321935		
0.009571		2.802683		-10.238326		87.652858		0.074384		1.752344		1.776045		73.662311		-1.056512		1.787973		-150.176063		22.387044		10.472352		22.794721		73.386249		-9.276597		16.355640		-150.048824		18.643813		25.020212		31.412876		-44.008367		0.432290		3.712552		30.073532		1.415080		-1.712204		35.579080		-24.056711		-6.346739		95.443037		105.089446		-3.120620		-7.813052		-4.672507		55.738808		-27.086630		11.797029		62.784564		118.489107		-14.135404		-0.118702		1.269544		
0.010985		2.844135		-10.419843		87.578036		0.074225		1.752611		1.774444		73.585440		-0.985514		1.810920		-150.058455		22.357192		10.496699		22.822624		73.336745		-9.314239		16.335785		-149.969111		18.470449		25.115785		31.463431		-43.779604		0.461945		3.786636		30.157223		1.433745		-1.697086		36.197450		-24.184980		-6.119227		95.501245		105.139010		-3.080514		-7.799472		-4.667238		56.181820		-27.104641		11.946096		62.807044		118.478138		-14.162354		-0.119040		1.237608		
0.012399		2.882038		-10.611713		87.511410		0.074034		1.752878		1.772831		73.517718		-0.932045		1.839414		-149.939066		22.328629		10.513527		22.842151		73.292575		-9.336745		16.304261		-149.885996		18.326481		25.184156		31.493984		-43.540395		0.494124		3.862752		30.268137		1.461738		-1.691473		36.811084		-24.295257		-5.922540		95.548782		105.180552		-3.036963		-7.786291		-4.660518		56.622176		-27.076279		12.048044		62.818873		118.483908		-14.171980		-0.114536		1.214588		
0.013813		2.986600		-10.691936		87.388046		0.074001		1.753313		1.771126		73.308706		-0.769122		1.826823		-149.793970		22.287583		10.610245		23.119583		73.132888		-9.486745		16.405112		-149.791417		17.985539		25.480174		31.986903		-43.409530		0.554725		3.960047		30.210949		1.433412		-1.541133		37.536413		-24.447975		-5.499608		95.579090		105.305009		-3.149722		-7.644920		-4.761025		57.052767		-27.272504		12.428717		62.879313		118.364660		-14.500050		-0.052783		0.949312		
0.015227		3.082951		-10.783887		87.269193		0.073955		1.753729		1.769416		73.115141		-0.616591		1.819525		-149.650999		22.243706		10.698003		23.372920		72.985973		-9.624987		16.490300		-149.696748		17.656670		25.744719		32.435257		-43.264496		0.612204		4.056207		30.162184		1.403051		-1.407862		38.249836		-24.598218		-5.097188		95.611297		105.421266		-3.241165		-7.516153		-4.848633		57.483679		-27.443207		12.780437		62.931547		118.263922		-14.785210		0.004184		0.711886		
0.016641		3.109649		-10.981928		87.196689		0.073783		1.753972		1.767723		73.059001		-0.562290		1.856372		-149.529447		22.190051		10.706874		23.396822		72.952159		-9.650607		16.440519		-149.606211		17.469966		25.753457		32.465147		-43.001938		0.641961		4.137940		30.224933		1.384680		-1.421871		38.856209		-24.718485		-4.892771		95.660349		105.461390		-3.158501		-7.504705		-4.825808		57.920189		-27.390404		12.868990		62.921394		118.310074		-14.718356		0.013164		0.717211		
0.018056		3.143560		-11.159531		87.100833		0.073658		1.754221		1.765996		72.977635		-0.472150		1.897436		-149.409422		22.130355		10.734926		23.444544		72.900159		-9.710498		16.390484		-149.515880		17.217835		25.756766		32.522373		-42.752596		0.665737		4.232462		30.210780		1.340720		-1.413466		39.474373		-24.847094		-4.653979		95.712080		105.521185		-3.079259		-7.459232		-4.810644		58.347989		-27.369705		12.983885		62.923648		118.400181		-14.656213		0.024937		0.705118		
0.019470		3.188618		-11.305548		86.968888		0.073610		1.754481		1.764217		72.857282		-0.326624		1.945019		-149.291756		22.061321		10.792619		23.529080		72.820052		-9.823352		16.340057		-149.425867		16.864589		25.751681		32.621847		-42.523678		0.680270		4.346750		30.077778		1.257210		-1.370420		40.110760		-24.988591		-4.362065		95.767954		105.611380		-3.005305		-7.361176		-4.807320		58.762325		-27.398621		13.139490		62.945074		118.558219		-14.601348		0.041027		0.666106		
0.020884		3.223763		-11.475616		86.868827		0.073467		1.754763		1.762430		72.757477		-0.241716		1.993081		-149.163231		22.010772		10.826364		23.586637		72.749817		-9.884802		16.289104		-149.327500		16.623733		25.755093		32.689334		-42.279282		0.702863		4.445047		30.071114		1.235268		-1.346317		40.731424		-25.103324		-4.126500		95.813927		105.683410		-2.938736		-7.289176		-4.801321		59.168389		-27.352723		13.221083		62.953756		118.671519		-14.568291		0.063109		0.633396		
0.022298		3.252961		-11.660115		86.787897		0.073268		1.755059		1.760638		72.670002		-0.193177		2.041429		-149.028191		21.971314		10.845740		23.628005		72.685506		-9.915411		16.237836		-149.224121		16.450311		25.763603		32.737630		-42.025600		0.730293		4.533749		30.140251		1.250268		-1.333580		41.342654		-25.202000		-3.924745		95.853960		105.744539		-2.876597		-7.232810		-4.793717		59.569489		-27.261937		13.258268		62.954792		118.757976		-14.548317		0.088787		0.604467		
0.023712		3.294560		-11.779408		86.645371		0.073184		1.755395		1.758777		72.507503		-0.049712		2.104832		-148.897989		21.904425		10.911786		23.756140		72.568757		-10.030008		16.172471		-149.122612		16.072160		25.752874		32.889318		-41.821150		0.744945		4.653021		30.012033		1.164190		-1.264376		41.997737		-25.317848		-3.626230		95.903522		105.863924		-2.806793		-7.043019		-4.803870		59.941774		-27.262549		13.351054		63.001367		119.012602		-14.511188		0.137735		0.522572		
0.025126		3.335286		-11.894458		86.499545		0.073102		1.755737		1.756909		72.339701		0.099973		2.169078		-148.767020		21.835718		10.979786		23.891048		72.448916		-10.149009		16.105534		-149.020023		15.680097		25.741417		33.049334		-41.619945		0.759016		4.773132		29.873385		1.073484		-1.192403		42.656320		-25.435024		-3.321044		95.953349		105.987027		-2.734758		-6.842841		-4.814607		60.311158		-27.267956		13.444925		63.050372		119.279381		-14.471638		0.189208		0.436880		
0.026540		3.346023		-12.077079		86.424773		0.072863		1.756066		1.755078		72.245363		0.151732		2.216330		-148.620011		21.795090		10.988381		23.947552		72.386685		-10.170144		16.046537		-148.903245		15.494174		25.755236		33.118525		-41.368149		0.788888		4.849818		29.963843		1.107403		-1.188186		43.276051		-25.536545		-3.112304		95.989684		106.049011		-2.652988		-6.763522		-4.801119		60.699922		-27.166892		13.455333		63.046752		119.384225		-14.436568		0.226873		0.402495		
0.027955		3.371072		-12.222413		86.345303		0.072635		1.756442		1.753189		72.100078		0.209730		2.263734		-148.470123		21.694531		10.999433		24.365916		72.288691		-10.201684		15.989056		-148.775542		15.178146		25.747575		33.752728		-41.152833		0.829048		4.921004		29.997111		1.085266		-1.157510		43.908443		-25.621296		-2.879273		96.048109		106.145135		-2.532806		-6.592037		-4.850822		61.042153		-27.075036		13.365891		63.109383		119.754821		-14.216682		0.313817		0.190936		
0.029369		3.426336		-12.289029		86.255915		0.072434		1.756916		1.751178		71.847240		0.280899		2.311457		-148.314156		21.467454		11.015668		25.548207		72.115198		-10.255192		15.934775		-148.624778		14.587449		25.694566		35.579733		-41.014528		0.890928		4.980576		29.909647		0.944788		-1.070981		44.567564		-25.670641		-2.594961		96.153168		106.313331		-2.331532		-6.225978		-5.033930		61.286151		-27.002620		13.065651		63.311881		120.686448		-13.606629		0.504791		-0.394657		
0.030783		3.459732		-12.412317		86.136769		0.072308		1.757269		1.749202		71.671203		0.386925		2.366321		-148.170265		21.343029		11.017546		26.091666		72.001155		-10.330567		15.880456		-148.493645		14.137426		25.698540		36.408334		-40.803917		0.906100		5.073012		29.831244		0.906422		-1.027696		45.183622		-25.751692		-2.338521		96.217924		106.412360		-2.173397		-6.018706		-5.098259		61.588858		-26.951433		12.976662		63.418449		121.106625		-13.320328		0.574697		-0.680389		
